# xmcd CD database file
#
# Track frame offsets:
#	150
#	22522
#	45345
#	67270
#
# Disc length: 1197 seconds
#
# Revision: 5
# Processed by: cddbd v1.5.2PL0 Copyright (c) Steve Scherf et al.
# Submitted via: CDex 1.70beta2
#
DISCID=2604ab04
DTITLE=V6 - WAになっておどろう
DYEAR=1997
DGENRE=JPop
TTITLE0=WAになっておどろう
TTITLE1=WHAT'S COOL？
TTITLE2=WAになっておどろう (Original Karaoke)
TTITLE3=WHAT'S COOL？ (Original Karaoke)
EXTD=YEAR: 1997
EXTT0=
EXTT1=
EXTT2=
EXTT3=
PLAYORDER=
